<svg width="22" height="16" viewBox="0 0 22 16" fill="none" xmlns="http://www.w3.org/2000/svg">
<path fill-rule="evenodd" clip-rule="evenodd" d="M21.0604 0.939199C21.3419 1.2205 21.5 1.60198 21.5 1.99974C21.5 2.39751 21.3419 2.77899 21.0604 3.06029L9.0497 15.0608C8.76816 15.342 8.38636 15.5 7.98825 15.5C7.59015 15.5 7.20835 15.342 6.92681 15.0608L0.921444 9.06054C0.647963 8.77763 0.496636 8.39871 0.500057 8.0054C0.503477 7.61209 0.661372 7.23585 0.939733 6.95773C1.21809 6.6796 1.59465 6.52184 1.98829 6.51843C2.38194 6.51501 2.76118 6.66621 3.04434 6.93946L7.98825 11.8792L18.9375 0.939199C19.2191 0.65798 19.6009 0.5 19.999 0.5C20.3971 0.5 20.7789 0.65798 21.0604 0.939199Z" fill="#1493A5"/>
</svg>
