<svg width="32" height="32" viewBox="0 0 32 32" fill="none" xmlns="http://www.w3.org/2000/svg">
<path d="M3.20483 9.41479L16 15.8116L28.7952 9.41479C28.7479 8.5995 28.3906 7.83317 27.7965 7.27275C27.2025 6.71234 26.4167 6.40024 25.6 6.40039H6.40003C5.58337 6.40024 4.79755 6.71234 4.20352 7.27275C3.60949 7.83317 3.2522 8.5995 3.20483 9.41479V9.41479Z" fill="#858585"/>
<path d="M28.8 12.9893L16 19.3893L3.19995 12.9893V22.4005C3.19995 23.2492 3.53709 24.0631 4.13721 24.6632C4.73733 25.2633 5.55126 25.6005 6.39995 25.6005H25.6C26.4486 25.6005 27.2626 25.2633 27.8627 24.6632C28.4628 24.0631 28.8 23.2492 28.8 22.4005V12.9893Z" fill="#858585"/>
</svg>
